<svg xmlns="http://www.w3.org/2000/svg" viewBox="0 0 1488 1911" width="16" height="16" fill="none">
    <path fill="#433736" fill-opacity=".1" fill-rule="evenodd"
          d="m419 1023-4-17 4 8v9Zm918 691v-4l17 4h-17Zm-708 197-4-8h41v4l-4 4h-33Zm197-4v-4h25l-4 8h-17l-4-4Z"
          clip-rule="evenodd"/>
    <path fill="#54382D" fill-opacity=".3" fill-rule="evenodd"
          d="M604 4V0h8v4h-8Zm8 38v-4l4 25-4-21ZM490 226v-42l5 42h-5Zm-167 25v-4l17 4h-17Zm146 151v-4h17l-17 4Zm-197 767 5-17v17h-5Zm-92 55-4-21h4v21Zm1048 42 4-17v8l-4 9Zm164 8 4-8v29l-4-21Zm-55 34 4-17v17h-4Zm-8 79 4-17v5l-4 12ZM4 1416l4-12v12H4Zm1480 373v-20h4v20h-4Zm-4 5h4v4h-4v-4Zm-420 100v-4h26l-26 4Zm-394 13v-4h17v4h-17Zm47 0v-4h33v4h-33Zm83 0v-4h30v4h-30Z"
          clip-rule="evenodd"/>
    <path fill="#884A2A" fill-opacity=".8" fill-rule="evenodd"
          d="m495 298-5-72h5v72Zm-227 942 4-71h5l-9 71Zm964 9 25 25-25-17v-8Zm-54 42 38-4v4h-38Zm155 79 4-62h4l-8 67v-5Zm-67 59v-4l29 4h-29ZM151 1714l-17-29 38 25-21 4Zm1023 168 8-5h8l-16 5Zm-134 12v-4h20v4h-20Zm-558 4 17-4 12 4h-29Zm201 9v-4h30v4h-30Zm63 0v-4h50v4h-50Z"
          clip-rule="evenodd"/>
    <path fill="#D3612E"
          d="m604 4-17 30 25 8V4h-8Zm465 256 21 33 21-21-42-12Zm117 855-42 17-12 33 12 92 4 13 21-9 9-50 4-29v-42l4-25Z"/>
    <path fill="#965D42" fill-rule="evenodd"
          d="m1148 1270 21-9 9 30-21 21-4-4-5-38Zm118 159-17-21 17 17v4Zm-306 113 12-12-8 16-4-4Zm239 189-4-17 4 8v9Zm-855 96 21 9h-17l-4-9Zm21 59 4-13h12l13 17-29-4Z"
          clip-rule="evenodd"/>
    <path fill="#B19B73" d="M922 381h-17l21 5-4-5Zm109 30 9 21 12-13-21-8Zm226 892-33-8 29 17 4-9Z"/>
    <path fill="#E5A353" d="m964 381-8 9 25 8-17-17ZM407 1869l-26 4 13 17h13v-21Z"/>
    <path fill="#101329"
          d="m1125 290-56-30 42 12 14 18 112 58 108 381-134 231-16-13 125-180-79-314-4-34-112-129Zm-785 28-17 181h21l-4-181Zm746 202-34 88 29-13 13-54-4-21h-4Zm-705 42-12 12 4 63 21 4-4-75-9-4Zm-41 150-9 34 21 4 8-33-20-5Zm29 130-17 13 63 88 101 63 25-17-172-147Zm691 172-20 17v8l20-25Zm-37 369-51 147-8 16-80 126 17 9 151-290-29-8Zm-428 42-17 4 51 134 4-4-38-134Zm-205 46v33l25 13 13-29-38-17Zm419 251v30l4-17-4-13Zm352 59-25 29 4 9h34l-13-38Zm-855 17-17 29 30 4v-4l-13-29Z"/>
    <path fill="#F3822D" fill-rule="evenodd"
          d="m1065 478 54-30h92l30 5 79 314-125 180-135 67-20 17-365 8-134-50-172-147-17-92 8-33 34-76-4-75 21-21 107-7-95 153 181 72 41-55 13-42 101 122 50 42 163-17 42-38 46-84h5l16 30 17 17 155-51-67-180-25-8-25-4-46 25h-4l-21-42Zm-547 60 14-23 30 5 42 12-86 6Zm253 61-58-75h8l50 75ZM658 1601l96 21-83 8-13-29Zm537 113 50-50 21 8 17 29h12l17 5h8l13 4h4v4l-46 13-92-5-4-8Zm-55 105h34l8 4v54l-8 5h-21l-17 4h-13l-21 4h-29v-46l8-4 59-21Zm-821 8h25l4 9-29 8v-17Zm88 42 54-33 34 16 4 42-17 4h-4l-25-4h-9l-29-4h-8v-21Z"
          clip-rule="evenodd"/>
    <path fill="#EB5918"
          d="M826 138v13l29 29 29-25-58-17Zm-327 25-9 17v4l5 42v4l46-4-42-63Zm-210 84-12 4 37 30 9-30v-4h-34Zm197 151-17 4 5 34h12l25-17-16-21h-9Zm751 21-34 13 8 16 30 5-4-34ZM386 943l4 17 25 46 4 8 97 17v-25l-101-63h-29Zm-72 80-12 58h46l-4-21-4-12v-13l-5-12h-21Zm726 8-365 8-4 97-5 58 298 21 80-37v-88l-4-51v-8Zm-864 134-33 29 33 9h4l4-21-8-17Zm1211 63-37 46h42l4-8 4-26-13-12Zm-155 29-4 9-12 21v4l8 4 33 8v-29l-25-17ZM34 1387H17l-9 17v12h30l-4-29Zm926 155-206 80-83 8 37 67 17 13-117 88-13-4-134 42 34 16 117 17 122-4 155-4 138-13-4-54-214-34v-38l75-50 80-126-4-4Zm352 80-25 25-21 25 17 29 62-67-33-12Zm-1069 33-46 59 92 113 17-29-55-134-8-9Zm956 67v9l33 25-4 21-67 4 13 38 8 4 109-96-92-5Zm-63 88-63-4 8 34 59-21-4-9Z"/>
    <path fill="#071C40"
          d="m1136 495-46 25 4 21-13 54-29 13 8 83h5l21 13 109-50-38-143-21-16Zm-813 4 46 75 12-12-37-63h-21Zm180 197 142 12 13-42-13-71h-20l-51-29-21-42-50 172Zm-130-59-33 75 20 5 34-76-21-4Zm-42 109 21 109 17-13-17-92-21-4Zm864 201-135 67-20 25 4 51 88 75 12-33 67-172-16-13Zm-654 42-25 17v50l155 80 4-97-134-50Zm33 268 4 172 17-4 9-46-30-122Zm491-4-25 17-17 88v25l29 8 13-138Zm-625 134-12 101-13 29 96 189-260-42 55 134 13 29h25l21 9 4 37h12l26-4 54-33 134-42 13 4 117-88-21-4-167 63-93-348-4-34Zm620 365-159-71-17-9-75 50 4 13-4 17v8l214 34 50 12 63 4 25-29 67-4 4-21-33-25-4-17 50-50 17-30-168 42 134-201-12-8-76-4-80 289Z"/>
    <path fill="#071C40" d="m326 1504-79 42 55-42h24l64-33v33h-64Z"/>
    <path fill="#3F1D19" d="m633 1559-4 4 21 34-17-38Z"/>
    <path fill="#FD9F25"
          d="m943 344-21 37 4 5 30 4 8-9-21-37Zm-469 92-46 4v46l58-42v-8h-12Zm234 67-4 12 9 9h8l-13-21Zm264 92-134 38-54 84 138 46 50-168Zm72 583-80 37 59 143 17-88 4-42v-50Zm-877 380 5 43-9-38 4-5-24-225 197-25 8 20-181 230Zm990-221v50l-4 34 50 21-46-105Zm205 138-96 34 12 84-12 41 21 13 25-25 50-147Zm-335 373-138 13-76 8v34h55l54-5 118-4v-46h-13Zm-293 17-122 4v34h168v-34l-46-4Z"/>
    <path fill="#F85709"
          d="m662 122-79 67 46 109-13 4-75-76-46 4v168l16 21 206-209 226 134 21 37 17 17 29 9 21 4 21 8 117-4 34 17 34-13-126-147-21 21-42 72-13-5-151-205-29 25 8 21-4 46-12 9h-21L662 122ZM323 251l-9 30 26 37 4 181 37 63 9 4 21-21v-50l17-55 46-4-5-34v-4l-46-75-4-13-79-59h-17Zm96 763v38l-4 12-67 17h-46l-25 71v17l-9 71-33 38h-25l-26-33-4-13v-8l-4-21-33-9-51 97v75l4 21 5 13-17 46H71l-33-30H4l-4 68 4 12v4l4 13 126 172 38 25 25 4 46-59-4-33-4-13-42-21-21 13-29-268 197-25 12-147 151-55 13-50v-25l-97-17Zm931 260-9 17v17l-8 67-4 12-34 42h-29l-17-21-4-25v-34l8-37-29-17-8-4h-38l-21 21v25l46 105 13 25 12 8 13 13 25 21 96-34-50 147 33 12 51-339-4-21h-42Zm-461 587-155 4 46 4h33l76-8Zm134-67 4 54h13l33-4 8-4-8-34-50-12Z"/>
    <path fill="#FA8824"
          d="m587 34-25 54v59l21 42 79-67-46-59-4-21-25-8Zm582 381-50 33h92l-8-16-34-17Zm-683 29-58 42-17 9v50l193-13 41 63 13 71 101 122 50 42 163-17 42-38 46-84-8-83 34-88-21-42-67 33-26 84-50 168-138-46 54-84-67-34-58-75-9-9-218-71Zm180 750-12 72-34 83-16 30-9 46 38 134 17 38 8 4 96 21 206-80 12-12 51-147v-25l-59-143-298-21Zm-494 516-21 4-13 4-138 84 214 67 12 4 59 4 21 5h17l-4-38v-13l-30-4-92-113-25-4Zm1165 4-46 13-109 96v54h25l17-4h17l12-4h4l13-4 210-67v-4l4-5v-20l-4-5-126-50h-17Zm-264 130-33 4v42h33v-46Zm-578 8 4 42 12 4h13l59 5h29v-34l-117-17Zm285 17v34h33v-34h-33Z"/>
    <path fill="#F6F9F5" d="m1253 687-67-180 38 168-126 63 155-51Zm-830 4 181 72-143-76 71-172-109 176Z"/>
    <path fill="#1F66A4" fill-rule="evenodd"
          d="m1157 511-21-16 25 4-4 12Zm-76 210-16-30 21 13-5 17Zm-565 335 155 80-5 58-12 72-34 83-16 30-30-122 4 172 51 134 21 34 8 4 13 29 37 67-4 9-167 63-93-348 67-105-50-8-21 79-12 101-38-17-64 33h-24l-10 19-45 23-12 63-42-21-30-25 185-235 155-222 13-50Zm528 34 88 75 12 92-37 51 50 79-4 34-13 42-80 289-159-71 151-290 13-138-21-25v-138Zm218 544-168 42 134-201 13 13 37 105-12 41h-4Zm-1023-12 4 33 8 9 260 42-96-189-25-13h-64l-34 19-53 99Z"
          clip-rule="evenodd"/>
    <path fill="#2489C6" fill-rule="evenodd"
          d="m700 482 310-75 21 4 9 21-42 79-26 84-134 38-67-34-50-75-13-21-8-21Zm457 29 4-12 25 8 38 168-126 63-17-17 5-17 109-50-38-143ZM604 763l-143-76 71-172 30 5-9 4-50 172 142 12-41 55Zm503 545 37-51 4 13 5 38h-46Zm171 285-37-105 25 21 12 84Z"
          clip-rule="evenodd"/>
    <path fill="#29A6DA"
          d="m780 381-21 5-130 33 71 63 310-75-29-9-25-8-30-4-21-5H780Zm-319 927-21 79 4 34 67-105-50-8Zm646 0 50 79v-75l-4-4h-46Z"/>
    <path fill="#2C4A67" d="m1044 1228-4 42 25-17-21-25Zm-336 469-4 9 21 4-17-13Z"/>
    <path fill="#FDC230"
          d="M717 210 511 419l-25 17v8l218 71 4-12-8-21-71-63 130-33 21-5h142l21-37-226-134Zm452 205-117 4-12 13-42 79 67-33 54-30 50-33Zm-741 25-17 55 17-9v-46Zm-76 721-12 147 8 20 155-222-151 55Zm801 260-13 42 76 4-13-25-50-21Zm109 213-17 30 21 8 21-25-21-13h-4Zm-914 202-29 8 4 38h4l13 4h25l4-13-4-37h-17Z"/>
    <path fill="#54382D" fill-opacity=".3" d="M46 1014v21l4-21h-4Zm0 25-4 13 4-4v-9Zm1438 725h-4v5h4v-5Z"/>
    <path fill="#884A2A" fill-opacity=".8" d="M1484 1789h-4v5h4v-5Z"/>
    <path fill="#D3612E" d="m1295 968-46 46v50l13 51v42l29-168 4-21ZM63 1006l-17 8h4l13-8Z"/>
    <path fill="#965D42" d="m947 901 25 17v-13l-25-4Z"/>
    <path fill="#101329" fill-rule="evenodd"
          d="m553 524 9-4 42 12 41 63h-20l-51-29-21-42Zm394 369 248-97 12 9-230 121v-4l-5-17-25-4v-8Zm-205 50L453 834l289 80v29Zm105-38v-8h12v8h-12Z"
          clip-rule="evenodd"/>
    <path fill="#EB5918"
          d="m943 34-17 29 105 109-88-138Zm-624 8-30 8 109 126-79-134ZM197 779l-4 17v17h42l-9-34h-29Zm775 126v13l5 4-5-17ZM63 1006l-13 8-4 21v13l42 4-25-46Zm100 557 9 38 21-13-30-25Z"/>
    <path fill="#3F1D19" d="m947 893-88 4v8h-12v-8l-105 17v29l235-17v-4l-5-4-25-17v-8Z"/>
    <path fill="#F85709" d="M193 813v50l58 80 38-4-54-126h-42ZM46 1048l-4 4-34 71v59l9 25h29l42-155-42-4Z"/>
    <path fill="#29A6DA" d="m302 1504-55 42-12 63 4 13 63-118Z"/>
</svg>