<svg xmlns="http://www.w3.org/2000/svg" viewBox="0 0 42 42" width="16" height="16" fill="none">
    <path fill-rule="evenodd" clip-rule="evenodd"
          d="M12 0C5.37258 0 0 5.37258 0 12V30C0 36.6274 5.37258 42 12 42H30C36.6274 42 42 36.6274 42 30V12C42 5.37258 36.6274 0 30 0H12ZM20.64 8.10068C18.7886 8.10068 15.574 9.75561 14.4049 12.4835C17.1328 12.6134 18.6907 12.8723 20.7699 14.9515C22.5885 16.7701 23.238 18.4588 23.238 21.3165C25.836 20.0176 27.6208 16.9328 27.6208 15.0814C27.6208 13.23 26.8853 11.4544 25.5762 10.1453C24.267 8.83615 22.4914 8.10068 20.64 8.10068ZM14.8651 14.2764C16.7166 14.2764 19.9312 15.9314 21.1003 18.6592C18.3724 18.7891 16.8145 19.0481 14.7352 21.1273C12.9167 22.9459 12.2672 24.6345 12.2672 27.4923C9.66919 26.1933 7.88438 23.1086 7.88438 21.2572C7.88438 19.4058 8.61985 17.6302 9.929 16.3211C11.2381 15.0119 13.0137 14.2764 14.8651 14.2764ZM20.8998 23.536C22.0689 26.2638 25.2835 27.9188 27.135 27.9188C28.9864 27.9188 30.762 27.1833 32.0711 25.8741C33.3802 24.565 34.1157 22.7894 34.1157 20.938C34.1157 19.0866 32.3309 16.0019 29.7329 14.7029C29.7329 17.5607 29.0834 19.2493 27.2649 21.0679C25.1856 23.1471 23.6277 23.4061 20.8998 23.536ZM21.1029 33.9561C22.9543 33.9561 26.1689 32.3012 27.338 29.5733C24.6101 29.4434 23.0522 29.1845 20.973 27.1052C19.1544 25.2867 18.5049 23.598 18.5049 20.7402C15.9069 22.0392 14.1221 25.1239 14.1221 26.9753C14.1221 28.8268 14.8576 30.6023 16.1667 31.9115C17.4759 33.2206 19.2515 33.9561 21.1029 33.9561Z"
          fill="url(#paint0_linear_1697_15562)"></path>
    <defs>
        <linearGradient id="paint0_linear_1697_15562" x1="21" y1="0" x2="21" y2="42" gradientUnits="userSpaceOnUse">
            <stop offset="0.155804" stop-color="#603DDC"></stop>
            <stop offset="1" stop-color="#10D5CB"></stop>
        </linearGradient>
    </defs>
</svg>